<svg width="400" height="300" viewBox="0 0 200 94" fill="none" xmlns="http://www.w3.org/2000/svg">
<path d="M93.17 65.5C92.64 64.97 92.38 64.31 92.38 63.53C92.38 62.75 92.65 62.09 93.17 61.56C93.7 61.03 94.37 60.7599 95.17 60.7599C96.14 60.7599 97.01 61.25 97.46 62.03L96.7 62.47C96.42 61.94 95.84 61.61 95.17 61.61C94.6 61.61 94.14 61.79 93.78 62.15C93.43 62.51 93.25 62.97 93.25 63.52C93.25 64.07 93.43 64.53 93.78 64.89C94.14 65.25 94.6 65.43 95.17 65.43C95.84 65.43 96.43 65.0899 96.7 64.5699L97.46 65C97.24 65.39 96.92 65.7 96.51 65.94C96.11 66.17 95.66 66.28 95.17 66.28C94.37 66.28 93.7 66.01 93.17 65.49V65.5Z" fill="white"/>
<path d="M99.61 65.35H101.97V66.19H98.73V60.86H101.93V61.7H99.61V63.09H101.74V63.92H99.61V65.36V65.35Z" fill="white"/>
<path d="M106.6 60.85H107.48V66.18H106.79L104.27 62.56V66.18H103.39V60.85H104.08L106.6 64.47V60.85Z" fill="white"/>
<path d="M112.5 60.85V61.69H111V66.19H110.12V61.69H108.61V60.85H112.5Z" fill="white"/>
<path d="M116.68 66.19L115.55 64.25H114.51V66.19H113.63V60.86H115.76C116.24 60.86 116.64 61.03 116.97 61.36C117.31 61.69 117.47 62.0899 117.47 62.5699C117.47 63.2499 117.04 63.87 116.41 64.12L117.62 66.19H116.66H116.68ZM114.51 61.68V63.46H115.77C116.23 63.46 116.61 63.0599 116.61 62.5699C116.61 62.0799 116.24 61.68 115.77 61.68H114.51Z" fill="white"/>
<path d="M121.33 66.29C120.56 66.29 119.9 66.02 119.36 65.49C118.83 64.95 118.56 64.29 118.56 63.52C118.56 62.75 118.83 62.09 119.36 61.56C119.9 61.02 120.56 60.75 121.33 60.75C122.1 60.75 122.76 61.02 123.29 61.56C123.83 62.09 124.1 62.75 124.1 63.52C124.1 64.29 123.83 64.95 123.29 65.49C122.76 66.02 122.1 66.29 121.33 66.29ZM121.33 65.43C121.86 65.43 122.31 65.25 122.67 64.89C123.04 64.52 123.22 64.07 123.22 63.52C123.22 62.97 123.04 62.51 122.67 62.16C122.31 61.79 121.86 61.61 121.33 61.61C120.8 61.61 120.35 61.79 119.98 62.16C119.61 62.53 119.44 62.98 119.44 63.52C119.44 64.06 119.62 64.53 119.98 64.89C120.35 65.25 120.8 65.43 121.33 65.43Z" fill="white"/>
<path d="M128.69 65.5C128.16 64.97 127.9 64.31 127.9 63.53C127.9 62.75 128.17 62.09 128.69 61.56C129.22 61.03 129.89 60.7599 130.69 60.7599C131.66 60.7599 132.53 61.25 132.98 62.03L132.22 62.47C131.94 61.94 131.36 61.61 130.69 61.61C130.12 61.61 129.66 61.79 129.3 62.15C128.95 62.51 128.77 62.97 128.77 63.52C128.77 64.07 128.95 64.53 129.3 64.89C129.66 65.25 130.12 65.43 130.69 65.43C131.36 65.43 131.95 65.0899 132.22 64.5699L132.98 65C132.76 65.39 132.44 65.7 132.03 65.94C131.63 66.17 131.18 66.28 130.69 66.28C129.89 66.28 129.22 66.01 128.69 65.49V65.5Z" fill="white"/>
<path d="M136.65 66.29C135.88 66.29 135.22 66.02 134.68 65.49C134.15 64.95 133.88 64.29 133.88 63.52C133.88 62.75 134.15 62.09 134.68 61.56C135.22 61.02 135.88 60.75 136.65 60.75C137.42 60.75 138.08 61.02 138.61 61.56C139.15 62.09 139.42 62.75 139.42 63.52C139.42 64.29 139.15 64.95 138.61 65.49C138.08 66.02 137.42 66.29 136.65 66.29ZM136.65 65.43C137.18 65.43 137.63 65.25 137.99 64.89C138.36 64.52 138.54 64.07 138.54 63.52C138.54 62.97 138.36 62.51 137.99 62.16C137.63 61.79 137.18 61.61 136.65 61.61C136.12 61.61 135.67 61.79 135.3 62.16C134.93 62.53 134.76 62.98 134.76 63.52C134.76 64.06 134.94 64.53 135.3 64.89C135.67 65.25 136.12 65.43 136.65 65.43Z" fill="white"/>
<path d="M145.9 60.85V66.18H145.02V62.38L143.4 65.06H143.29L141.67 62.37V66.18H140.79V60.85H141.74L143.35 63.52L144.97 60.85H145.91H145.9Z" fill="white"/>
<path d="M148.45 65.35H150.81V66.19H147.57V60.86H150.77V61.7H148.45V63.09H150.58V63.92H148.45V65.36V65.35Z" fill="white"/>
<path d="M155.28 66.19L154.15 64.25H153.11V66.19H152.23V60.86H154.36C154.84 60.86 155.24 61.03 155.57 61.36C155.91 61.69 156.07 62.0899 156.07 62.5699C156.07 63.2499 155.64 63.87 155.01 64.12L156.22 66.19H155.26H155.28ZM153.11 61.68V63.46H154.37C154.83 63.46 155.21 63.0599 155.21 62.5699C155.21 62.0799 154.84 61.68 154.37 61.68H153.11Z" fill="white"/>
<path d="M157.95 65.5C157.42 64.97 157.16 64.31 157.16 63.53C157.16 62.75 157.43 62.09 157.95 61.56C158.48 61.03 159.15 60.7599 159.95 60.7599C160.92 60.7599 161.79 61.25 162.24 62.03L161.48 62.47C161.2 61.94 160.62 61.61 159.95 61.61C159.38 61.61 158.92 61.79 158.56 62.15C158.21 62.51 158.03 62.97 158.03 63.52C158.03 64.07 158.21 64.53 158.56 64.89C158.92 65.25 159.38 65.43 159.95 65.43C160.62 65.43 161.21 65.0899 161.48 64.5699L162.24 65C162.02 65.39 161.7 65.7 161.29 65.94C160.89 66.17 160.44 66.28 159.95 66.28C159.15 66.28 158.48 66.01 157.95 65.49V65.5Z" fill="white"/>
<path d="M163.54 60.85H164.42V66.18H163.54V60.85Z" fill="white"/>
<path d="M169.48 66.19L169.11 65.12H166.84L166.47 66.19H165.52L167.46 60.86H168.51L170.44 66.19H169.49H169.48ZM167.13 64.29H168.82L167.97 61.88L167.12 64.29H167.13Z" fill="white"/>
<path d="M172.41 65.35H174.58V66.19H171.53V60.86H172.41V65.36V65.35Z" fill="white"/>
<path d="M152.33 31.83H150.24V51.55H152.33V31.83Z" fill="white"/>
<path d="M135.32 31.83H128.87V51.55H135.32C137.97 51.55 140.45 50.53 142.32 48.67C144.2 46.81 145.23 44.32 145.23 41.67C145.23 36.25 140.78 31.84 135.32 31.84M140.79 47.3199C139.31 48.7899 137.29 49.6 135.1 49.6H130.93V33.79H135.1C137.28 33.79 139.3 34.6 140.79 36.06C142.27 37.52 143.09 39.51 143.09 41.67C143.09 43.83 142.27 45.86 140.79 47.33" fill="white"/>
<path d="M165.92 31.84L164.5 31.83L155.78 51.55H158.01L161.17 44.28H169.26L172.42 51.55H174.65L165.93 31.85L165.92 31.84ZM162 42.3199L165.2 34.96L168.4 42.3199H162Z" fill="white"/>
<path d="M83.12 43.89C85.7 42.96 87.4 40.6499 87.4 38.0099C87.4 36.3199 86.72 34.75 85.5 33.59C84.3 32.45 82.69 31.83 80.98 31.83H73.53V42.3199H65.76L61.12 31.84L59.7 31.83L50.98 51.55H53.21L56.37 44.28H64.46L67.62 51.55H69.85L66.63 44.28H73.54V51.55H75.6V44.27L80.95 44.22L85 51.54H87.46L83.14 43.88L83.12 43.89ZM57.19 42.3199L60.39 34.96L63.59 42.3199H57.19ZM80.91 42.3199H75.6V33.86H80.88C82.06 33.86 83.17 34.29 84 35.06C84.84 35.84 85.3 36.8799 85.3 38.0099C85.3 39.1399 84.84 40.27 84 41.08C83.17 41.88 82.08 42.3199 80.91 42.3199Z" fill="white"/>
<path d="M105.81 51.55L95.97 41.42L105.81 31.83H103.02L94.55 40.08V31.83H92.46V51.55H94.55V42.84L103.02 51.55H105.81Z" fill="white"/>
<path d="M116.73 31.84L115.31 31.83L106.59 51.55H108.82L111.98 44.28H120.07L123.23 51.55H125.46L116.74 31.85L116.73 31.84ZM112.81 42.3199L116.01 34.96L119.21 42.3199H112.81Z" fill="white"/>
<path d="M33.9 55.38H27L22.19 44.28H33.9V55.38Z" fill="white"/>
<path d="M24.87 55.38L20.05 44.28H14V55.38H24.87Z" fill="white"/>
<path d="M41.38 44.28H35.91V55.38H41.38V44.28Z" fill="white"/>
<path d="M41.38 28H35.91V42.3199H41.38V28Z" fill="white"/>
<path d="M33.9 42.3199V28H15.13L21.34 42.3199H33.9Z" fill="white"/>
<path d="M19.2 42.3199L14 30.31V42.3199H19.2Z" fill="white"/>
</svg>
