<svg width="155" height="86" viewBox="0 0 155 86" fill="none" xmlns="http://www.w3.org/2000/svg">
<g clip-path="url(#clip0_2_2)">
<path d="M10.428 24.462H14.604V25.746H10.428V24.462ZM10.548 28.062H15.288V29.37H8.98799V20.97H15.12V22.278H10.548V28.062ZM19.631 29.49C18.975 29.49 18.347 29.398 17.747 29.214C17.147 29.022 16.671 28.778 16.319 28.482L16.859 27.27C17.195 27.534 17.611 27.754 18.107 27.93C18.603 28.106 19.111 28.194 19.631 28.194C20.071 28.194 20.427 28.146 20.699 28.05C20.971 27.954 21.171 27.826 21.299 27.666C21.427 27.498 21.491 27.31 21.491 27.102C21.491 26.846 21.399 26.642 21.215 26.49C21.031 26.33 20.791 26.206 20.495 26.118C20.207 26.022 19.883 25.934 19.523 25.854C19.171 25.774 18.815 25.682 18.455 25.578C18.103 25.466 17.779 25.326 17.483 25.158C17.195 24.982 16.959 24.75 16.775 24.462C16.591 24.174 16.499 23.806 16.499 23.358C16.499 22.902 16.619 22.486 16.859 22.11C17.107 21.726 17.479 21.422 17.975 21.198C18.479 20.966 19.115 20.85 19.883 20.85C20.387 20.85 20.887 20.914 21.383 21.042C21.879 21.17 22.311 21.354 22.679 21.594L22.187 22.806C21.811 22.582 21.423 22.418 21.023 22.314C20.623 22.202 20.239 22.146 19.871 22.146C19.439 22.146 19.087 22.198 18.815 22.302C18.551 22.406 18.355 22.542 18.227 22.71C18.107 22.878 18.047 23.07 18.047 23.286C18.047 23.542 18.135 23.75 18.311 23.91C18.495 24.062 18.731 24.182 19.019 24.27C19.315 24.358 19.643 24.446 20.003 24.534C20.363 24.614 20.719 24.706 21.071 24.81C21.431 24.914 21.755 25.05 22.043 25.218C22.339 25.386 22.575 25.614 22.751 25.902C22.935 26.19 23.027 26.554 23.027 26.994C23.027 27.442 22.903 27.858 22.655 28.242C22.415 28.618 22.043 28.922 21.539 29.154C21.035 29.378 20.399 29.49 19.631 29.49ZM28.4619 29.49C27.8219 29.49 27.2259 29.386 26.6739 29.178C26.1299 28.962 25.6539 28.662 25.2459 28.278C24.8459 27.886 24.5339 27.426 24.3099 26.898C24.0859 26.37 23.9739 25.794 23.9739 25.17C23.9739 24.546 24.0859 23.97 24.3099 23.442C24.5339 22.914 24.8499 22.458 25.2579 22.074C25.6659 21.682 26.1419 21.382 26.6859 21.174C27.2299 20.958 27.8259 20.85 28.4739 20.85C29.1619 20.85 29.7899 20.97 30.3579 21.21C30.9259 21.442 31.4059 21.79 31.7979 22.254L30.7899 23.202C30.4859 22.874 30.1459 22.63 29.7699 22.47C29.3939 22.302 28.9859 22.218 28.5459 22.218C28.1059 22.218 27.7019 22.29 27.3339 22.434C26.9739 22.578 26.6579 22.782 26.3859 23.046C26.1219 23.31 25.9139 23.622 25.7619 23.982C25.6179 24.342 25.5459 24.738 25.5459 25.17C25.5459 25.602 25.6179 25.998 25.7619 26.358C25.9139 26.718 26.1219 27.03 26.3859 27.294C26.6579 27.558 26.9739 27.762 27.3339 27.906C27.7019 28.05 28.1059 28.122 28.5459 28.122C28.9859 28.122 29.3939 28.042 29.7699 27.882C30.1459 27.714 30.4859 27.462 30.7899 27.126L31.7979 28.086C31.4059 28.542 30.9259 28.89 30.3579 29.13C29.7899 29.37 29.1579 29.49 28.4619 29.49ZM33.2927 29.37V20.97H36.7487C37.4927 20.97 38.1287 21.09 38.6567 21.33C39.1927 21.57 39.6047 21.914 39.8927 22.362C40.1807 22.81 40.3247 23.342 40.3247 23.958C40.3247 24.574 40.1807 25.106 39.8927 25.554C39.6047 25.994 39.1927 26.334 38.6567 26.574C38.1287 26.806 37.4927 26.922 36.7487 26.922H34.1567L34.8527 26.214V29.37H33.2927ZM38.7887 29.37L36.6647 26.322H38.3327L40.4687 29.37H38.7887ZM34.8527 26.382L34.1567 25.638H36.6767C37.3647 25.638 37.8807 25.49 38.2247 25.194C38.5767 24.898 38.7527 24.486 38.7527 23.958C38.7527 23.422 38.5767 23.01 38.2247 22.722C37.8807 22.434 37.3647 22.29 36.6767 22.29H34.1567L34.8527 21.522V26.382ZM42.07 29.37V20.97H43.63V29.37H42.07ZM41.842 20.286L43.462 18.642H45.226L43.138 20.286H41.842ZM45.902 29.37V20.97H49.838C50.846 20.97 51.614 21.17 52.142 21.57C52.67 21.962 52.934 22.49 52.934 23.154C52.934 23.602 52.83 23.986 52.622 24.306C52.414 24.618 52.134 24.862 51.782 25.038C51.438 25.206 51.062 25.29 50.654 25.29L50.87 24.858C51.342 24.858 51.766 24.946 52.142 25.122C52.518 25.29 52.814 25.538 53.03 25.866C53.254 26.194 53.366 26.602 53.366 27.09C53.366 27.81 53.09 28.37 52.538 28.77C51.986 29.17 51.166 29.37 50.078 29.37H45.902ZM47.462 28.146H49.982C50.566 28.146 51.014 28.05 51.326 27.858C51.638 27.666 51.794 27.358 51.794 26.934C51.794 26.518 51.638 26.214 51.326 26.022C51.014 25.822 50.566 25.722 49.982 25.722H47.342V24.51H49.67C50.214 24.51 50.63 24.414 50.918 24.222C51.214 24.03 51.362 23.742 51.362 23.358C51.362 22.966 51.214 22.674 50.918 22.482C50.63 22.29 50.214 22.194 49.67 22.194H47.462V28.146ZM56.471 24.462H60.647V25.746H56.471V24.462ZM56.591 28.062H61.331V29.37H55.031V20.97H61.163V22.278H56.591V28.062ZM63.07 29.37V20.97H64.63V28.05H69.022V29.37H63.07ZM71.6936 24.462H75.8696V25.746H71.6936V24.462ZM71.8136 28.062H76.5536V29.37H70.2536V20.97H76.3856V22.278H71.8136V28.062ZM80.4211 29.37L84.2011 20.97H85.7371L89.5291 29.37H87.8971L84.6451 21.798H85.2691L82.0291 29.37H80.4211ZM82.1611 27.426L82.5811 26.202H87.1171L87.5371 27.426H82.1611Z" fill="white"/>
<path d="M23.32 33.09C26.62 33.18 29.41 33.52 32.03 34.72C33.45 35.37 34.69 36.24 35.59 37.53C36.8 39.27 36.93 41.18 36.47 43.18C35.99 45.29 34.94 47 32.92 47.99C31.45 48.72 29.87 48.83 28.27 48.69C27.34 48.61 26.44 48.41 25.6 47.97C24.93 47.62 24.88 47.5 25.07 46.77C25.33 45.77 25.65 44.77 25.86 43.76C26.39 41.13 24.83 39.3 22.14 39.38C20.65 39.43 19.37 39.99 18.37 41.1C16.75 42.9 16.78 45.27 18.42 47.09C19.68 48.5 21.29 49.38 23.01 50.07C24.68 50.74 26.39 51.28 28.06 51.95C29.87 52.68 31.55 53.64 32.96 55.01C35.19 57.17 35.84 59.79 35.18 62.76C34.36 66.46 32.08 69.05 28.88 70.9C26.34 72.37 23.58 73.19 20.7 73.66C17.27 74.21 13.84 74.28 10.41 73.68C8.07001 73.27 5.81001 72.62 3.85001 71.18C1.52001 69.47 0.570008 67.15 1.15001 64.35C1.72001 61.63 3.49001 59.83 6.14001 59.02C8.38001 58.34 10.54 58.84 12.59 59.83C13.16 60.1 13.2 60.31 13.04 60.93C12.82 61.78 12.53 62.63 12.4 63.5C11.99 66.14 13.65 68.14 16.33 68.31C19.12 68.48 21.61 66.66 22.23 63.98C22.51 62.78 22.16 61.73 21.32 60.84C20.4 59.87 19.25 59.25 18.07 58.69C15.69 57.58 13.29 56.51 10.92 55.39C9.39001 54.67 7.94001 53.81 6.73001 52.59C5.01001 50.85 4.40001 48.73 4.62001 46.35C4.95001 42.84 6.77001 40.16 9.43001 38C13.6 34.63 18.4 33.03 23.31 33.09H23.32Z" fill="white"/>
<path d="M55.29 68.01C54.82 68.58 54.4 69.14 53.94 69.66C52.46 71.33 50.76 72.71 48.63 73.5C45.59 74.62 42.33 73.95 40.27 71.74C38.9 70.27 38.15 68.47 37.77 66.53C36.98 62.57 37.48 58.74 38.92 55C39.95 52.31 41.42 49.88 43.54 47.89C45.6 45.96 48 44.77 50.86 44.69C54.27 44.6 56.7 46.16 58.07 49.28C58.12 49.4 58.18 49.52 58.29 49.76C58.47 48.75 58.62 47.88 58.78 47C59.03 45.58 58.89 45.78 60.2 45.78C63.36 45.78 66.53 45.78 69.69 45.78C70.26 45.78 70.28 45.8 70.17 46.35C69.29 50.72 68.4 55.09 67.53 59.47C67.12 61.55 66.65 63.62 66.72 65.76C66.74 66.33 66.81 66.91 66.93 67.47C67.12 68.33 67.61 68.99 68.37 69.46C68.92 69.8 68.95 69.92 68.61 70.47C67.85 71.69 66.7 72.47 65.44 73.11C63.46 74.1 61.39 74.47 59.24 73.77C56.98 73.04 55.77 71.4 55.41 69.09C55.36 68.75 55.34 68.41 55.3 68.02L55.29 68.01ZM57.18 57.07C57.18 55.74 57.07 54.72 56.67 53.76C56.01 52.19 54.55 51.58 52.97 52.24C51.76 52.74 50.99 53.7 50.38 54.79C49.12 57.08 48.58 59.56 48.62 62.16C48.63 63.03 48.81 63.93 49.1 64.75C49.67 66.37 51.19 66.98 52.8 66.34C53.79 65.94 54.51 65.21 55.07 64.34C56.56 62.04 57.07 59.46 57.18 57.07Z" fill="white"/>
<path d="M142.88 49.68C143.04 48.75 143.2 47.88 143.35 47C143.6 45.58 143.46 45.79 144.77 45.78C147.93 45.78 151.1 45.78 154.26 45.78C154.82 45.78 154.84 45.81 154.73 46.35C153.85 50.72 152.96 55.09 152.09 59.47C151.68 61.55 151.21 63.62 151.28 65.76C151.3 66.33 151.37 66.91 151.49 67.47C151.68 68.33 152.17 68.99 152.93 69.46C153.48 69.79 153.51 69.92 153.16 70.47C152.4 71.69 151.25 72.47 149.99 73.1C148.02 74.08 145.97 74.45 143.83 73.77C141.54 73.04 140.33 71.41 139.97 69.08C139.94 68.91 139.92 68.75 139.91 68.58C139.9 68.41 139.91 68.24 139.83 68.03C139.74 68.15 139.64 68.27 139.55 68.4C138.01 70.43 136.24 72.2 133.86 73.23C131.21 74.38 128.58 74.41 126.09 72.8C124.37 71.69 123.4 70.01 122.76 68.11C121.93 65.64 121.81 63.1 122.11 60.53C122.47 57.35 123.48 54.37 125.13 51.63C126.75 48.94 128.83 46.71 131.8 45.48C133.97 44.58 136.21 44.35 138.47 45.14C140.5 45.85 141.78 47.34 142.63 49.25C142.68 49.37 142.73 49.48 142.78 49.6C142.78 49.61 142.8 49.62 142.88 49.68ZM133.13 62.22C133.22 62.72 133.29 63.67 133.58 64.55C134.23 66.52 136.04 67.14 137.84 66.11C138.79 65.57 139.43 64.74 139.96 63.82C140.95 62.07 141.44 60.16 141.66 58.18C141.81 56.84 141.8 55.52 141.4 54.22C140.72 52.02 138.62 51.3 136.78 52.69C136.2 53.13 135.67 53.7 135.27 54.31C133.79 56.57 133.29 59.13 133.13 62.23V62.22Z" fill="white"/>
<path d="M85.23 50.8C85.82 50.1 86.36 49.4 86.96 48.76C88.78 46.83 90.93 45.41 93.55 44.82C95.54 44.37 97.44 44.53 99.11 45.84C100.49 46.92 101.14 48.42 101.4 50.11C101.66 51.8 101.32 53.44 101.03 55.08C100.55 57.82 100.05 60.55 99.6 63.29C99.41 64.43 99.41 65.58 99.63 66.73C99.85 67.85 100.41 68.73 101.44 69.28C102.18 69.67 102.23 69.87 101.7 70.53C100.31 72.28 98.45 73.29 96.31 73.75C94.13 74.22 92.08 73.87 90.3 72.45C88.96 71.39 88.34 69.93 88.14 68.26C87.95 66.66 88.35 65.13 88.62 63.59C89.11 60.77 89.66 57.96 90.13 55.14C90.23 54.56 90.21 53.93 90.1 53.35C89.89 52.31 89.11 51.91 88.1 52.24C87.15 52.55 86.47 53.21 85.87 53.97C84.74 55.42 84.25 57.11 83.94 58.89C83.16 63.4 82.36 67.9 81.58 72.41C81.52 72.78 81.35 72.93 80.96 72.93C77.54 72.93 74.12 72.93 70.71 72.93C70.26 72.93 70.21 72.87 70.3 72.44C71.34 67.3 72.4 62.16 73.42 57.01C73.76 55.29 73.98 53.54 73.72 51.78C73.56 50.69 73.08 49.79 72.08 49.22C71.59 48.94 71.56 48.78 71.85 48.3C72.58 47.09 73.68 46.3 74.91 45.67C76.92 44.62 79.02 44.24 81.22 44.95C83.51 45.69 84.75 47.34 85.12 49.67C85.18 50.03 85.2 50.39 85.24 50.79L85.23 50.8Z" fill="white"/>
<path d="M118.53 45.79H125.21C125.19 45.99 125.19 46.14 125.16 46.29C124.92 47.66 124.66 49.02 124.44 50.39C124.38 50.73 124.25 50.85 123.89 50.85C121.94 50.83 119.98 50.85 118.03 50.84C117.73 50.84 117.63 50.92 117.58 51.22C116.88 55.23 116.14 59.23 115.45 63.24C115.32 63.99 115.29 64.78 115.34 65.54C115.45 67.11 116.41 68.02 117.98 68.11C118.67 68.15 119.36 68.1 120.05 68.09C120.25 68.09 120.45 68.03 120.64 68.07C120.95 68.14 121.35 68.17 121.54 68.38C121.82 68.69 121.58 69.08 121.37 69.38C120.6 70.53 119.58 71.43 118.42 72.17C116.22 73.55 113.82 74.32 111.22 74.36C110 74.38 108.81 74.18 107.67 73.73C105.4 72.84 104.25 71.11 103.93 68.75C103.71 67.11 104.11 65.54 104.4 63.95C105.16 59.65 105.94 55.36 106.71 51.07C106.71 51.02 106.71 50.96 106.71 50.86C105.91 50.86 105.11 50.86 104.31 50.86C103.75 50.86 103.74 50.84 103.84 50.28C104.07 48.94 104.31 47.6 104.54 46.26C104.6 45.92 104.74 45.78 105.1 45.79C105.93 45.81 106.76 45.79 107.61 45.79C107.8 44.77 108.06 43.79 108.14 42.79C108.22 41.82 108.66 41.38 109.57 41.05C112.84 39.87 116.08 38.59 119.34 37.36C119.5 37.3 119.68 37.28 119.85 37.24C119.85 37.43 119.9 37.62 119.87 37.8C119.44 40.39 119 42.97 118.56 45.56C118.56 45.61 118.56 45.67 118.54 45.81L118.53 45.79Z" fill="white"/>
</g>
<defs>
<clipPath id="clip0_2_2">
<rect width="154" height="86" fill="white" transform="translate(0.875)"/>
</clipPath>
</defs>
</svg>
